<mxfile host="app.diagrams.net" modified="2024-06-16T22:41:11.627Z" agent="Mozilla/5.0 (Windows NT 10.0; Win64; x64) AppleWebKit/537.36 (KHTML, like Gecko) Chrome/126.0.0.0 Safari/537.36" etag="Qg2qwGIDt5__ajyDDSSA" version="24.5.4" type="device">
  <diagram name="Page-1" id="oJWA0_lkIlQbCiephd2d">
    <mxGraphModel dx="1232" dy="1530" grid="0" gridSize="10" guides="1" tooltips="1" connect="1" arrows="1" fold="1" page="0" pageScale="1" pageWidth="850" pageHeight="1100" background="#ffffff" math="0" shadow="0">
      <root>
        <mxCell id="0" />
        <mxCell id="1" parent="0" />
        <mxCell id="6dhvzc9-vLlkONgfLo2X-3" value="Databricks - Unified Data Intelligence Platform" style="swimlane;whiteSpace=wrap;html=1;fontSize=16;" parent="1" vertex="1">
          <mxGeometry x="162" y="-136" width="741" height="547" as="geometry" />
        </mxCell>
        <mxCell id="6dhvzc9-vLlkONgfLo2X-27" style="edgeStyle=none;curved=1;rounded=0;orthogonalLoop=1;jettySize=auto;html=1;entryX=0.5;entryY=0;entryDx=0;entryDy=0;fontSize=12;startSize=8;endSize=8;" parent="6dhvzc9-vLlkONgfLo2X-3" target="6dhvzc9-vLlkONgfLo2X-16" edge="1">
          <mxGeometry relative="1" as="geometry">
            <mxPoint x="275" y="187" as="sourcePoint" />
          </mxGeometry>
        </mxCell>
        <mxCell id="6dhvzc9-vLlkONgfLo2X-12" value="Workspace - Jupyter Notebook" style="swimlane;horizontal=0;whiteSpace=wrap;html=1;fontSize=16;startSize=55;" parent="6dhvzc9-vLlkONgfLo2X-3" vertex="1">
          <mxGeometry x="10" y="42" width="714" height="146" as="geometry" />
        </mxCell>
        <mxCell id="6dhvzc9-vLlkONgfLo2X-4" value="HuggingFace Datasets" style="shape=cylinder3;whiteSpace=wrap;html=1;boundedLbl=1;backgroundOutline=1;size=15;fontSize=16;" parent="6dhvzc9-vLlkONgfLo2X-12" vertex="1">
          <mxGeometry x="88" y="-178" width="109" height="104" as="geometry" />
        </mxCell>
        <mxCell id="6dhvzc9-vLlkONgfLo2X-10" style="edgeStyle=none;curved=1;rounded=0;orthogonalLoop=1;jettySize=auto;html=1;entryX=0.45;entryY=0.05;entryDx=0;entryDy=0;entryPerimeter=0;fontSize=12;startSize=8;endSize=8;" parent="6dhvzc9-vLlkONgfLo2X-12" source="6dhvzc9-vLlkONgfLo2X-4" target="6dhvzc9-vLlkONgfLo2X-5" edge="1">
          <mxGeometry relative="1" as="geometry" />
        </mxCell>
        <mxCell id="6dhvzc9-vLlkONgfLo2X-5" value="Ingest" style="rounded=0;whiteSpace=wrap;html=1;fontSize=16;fillColor=#97D077;" parent="6dhvzc9-vLlkONgfLo2X-12" vertex="1">
          <mxGeometry x="88" y="35" width="120" height="60" as="geometry" />
        </mxCell>
        <mxCell id="6dhvzc9-vLlkONgfLo2X-7" value="" style="edgeStyle=none;curved=1;rounded=0;orthogonalLoop=1;jettySize=auto;html=1;fontSize=12;startSize=8;endSize=8;" parent="6dhvzc9-vLlkONgfLo2X-12" source="6dhvzc9-vLlkONgfLo2X-5" target="6dhvzc9-vLlkONgfLo2X-6" edge="1">
          <mxGeometry relative="1" as="geometry" />
        </mxCell>
        <mxCell id="6dhvzc9-vLlkONgfLo2X-6" value="EDA &amp;amp; Data Processing" style="rounded=0;whiteSpace=wrap;html=1;fontSize=16;fillColor=#d5e8d4;strokeColor=#82b366;" parent="6dhvzc9-vLlkONgfLo2X-12" vertex="1">
          <mxGeometry x="255" y="35" width="120" height="60" as="geometry" />
        </mxCell>
        <mxCell id="6dhvzc9-vLlkONgfLo2X-31" value="&lt;font style=&quot;font-size: 21px;&quot;&gt;&lt;b&gt;1&lt;/b&gt;&lt;/font&gt;" style="text;html=1;strokeColor=#6c8ebf;fillColor=#dae8fc;align=center;verticalAlign=middle;whiteSpace=wrap;rounded=0;fontSize=16;" parent="6dhvzc9-vLlkONgfLo2X-12" vertex="1">
          <mxGeometry x="112.5" y="108" width="60" height="30" as="geometry" />
        </mxCell>
        <mxCell id="6dhvzc9-vLlkONgfLo2X-32" value="&lt;font style=&quot;font-size: 21px;&quot;&gt;&lt;b&gt;2&lt;/b&gt;&lt;/font&gt;" style="text;html=1;strokeColor=#6c8ebf;fillColor=#dae8fc;align=center;verticalAlign=middle;whiteSpace=wrap;rounded=0;fontSize=16;" parent="6dhvzc9-vLlkONgfLo2X-12" vertex="1">
          <mxGeometry x="288" y="108" width="60" height="30" as="geometry" />
        </mxCell>
        <mxCell id="6dhvzc9-vLlkONgfLo2X-53" value="Query" style="rounded=0;whiteSpace=wrap;html=1;fontSize=16;fillColor=#e1d5e7;strokeColor=#9673a6;" parent="6dhvzc9-vLlkONgfLo2X-12" vertex="1">
          <mxGeometry x="520" y="37" width="120" height="60" as="geometry" />
        </mxCell>
        <mxCell id="6dhvzc9-vLlkONgfLo2X-54" value="&lt;font style=&quot;font-size: 21px;&quot;&gt;&lt;b&gt;4&lt;/b&gt;&lt;/font&gt;" style="text;html=1;strokeColor=#6c8ebf;fillColor=#dae8fc;align=center;verticalAlign=middle;whiteSpace=wrap;rounded=0;fontSize=16;" parent="6dhvzc9-vLlkONgfLo2X-12" vertex="1">
          <mxGeometry x="597" y="106" width="60" height="30" as="geometry" />
        </mxCell>
        <mxCell id="6dhvzc9-vLlkONgfLo2X-33" value="&lt;font style=&quot;font-size: 21px;&quot;&gt;&lt;b&gt;3&lt;/b&gt;&lt;/font&gt;" style="text;html=1;strokeColor=#6c8ebf;fillColor=#dae8fc;align=center;verticalAlign=middle;whiteSpace=wrap;rounded=0;fontSize=16;" parent="6dhvzc9-vLlkONgfLo2X-12" vertex="1">
          <mxGeometry x="440" y="108" width="60" height="30" as="geometry" />
        </mxCell>
        <mxCell id="6dhvzc9-vLlkONgfLo2X-13" value="Compute - Apache Spark - Clusters" style="swimlane;horizontal=0;whiteSpace=wrap;html=1;fontSize=16;" parent="6dhvzc9-vLlkONgfLo2X-3" vertex="1">
          <mxGeometry x="10" y="213" width="724" height="321" as="geometry" />
        </mxCell>
        <mxCell id="6dhvzc9-vLlkONgfLo2X-43" value="SQL API" style="rounded=0;whiteSpace=wrap;html=1;fontSize=16;fillColor=#e1d5e7;strokeColor=#9673a6;" parent="6dhvzc9-vLlkONgfLo2X-13" vertex="1">
          <mxGeometry x="38" y="236" width="120" height="60" as="geometry" />
        </mxCell>
        <mxCell id="6dhvzc9-vLlkONgfLo2X-44" value="Pandas" style="rounded=0;whiteSpace=wrap;html=1;fontSize=16;fillColor=#97D077;strokeColor=#82b366;" parent="6dhvzc9-vLlkONgfLo2X-13" vertex="1">
          <mxGeometry x="38" y="15" width="120" height="60" as="geometry" />
        </mxCell>
        <mxCell id="6dhvzc9-vLlkONgfLo2X-45" value="" style="group" parent="6dhvzc9-vLlkONgfLo2X-13" vertex="1" connectable="0">
          <mxGeometry x="39" y="94" width="623" height="209" as="geometry" />
        </mxCell>
        <mxCell id="6dhvzc9-vLlkONgfLo2X-14" value="Pyspark" style="rounded=0;whiteSpace=wrap;html=1;fontSize=16;fillColor=#de7019;" parent="6dhvzc9-vLlkONgfLo2X-45" vertex="1">
          <mxGeometry y="71" width="120" height="60" as="geometry" />
        </mxCell>
        <mxCell id="6dhvzc9-vLlkONgfLo2X-16" value="Spark Context" style="rounded=0;whiteSpace=wrap;html=1;fontSize=16;fillColor=#DF7025;" parent="6dhvzc9-vLlkONgfLo2X-45" vertex="1">
          <mxGeometry x="167" y="71" width="120" height="60" as="geometry" />
        </mxCell>
        <mxCell id="6dhvzc9-vLlkONgfLo2X-18" value="Cluster Manager" style="rounded=0;whiteSpace=wrap;html=1;fontSize=16;fillColor=#DF7025;" parent="6dhvzc9-vLlkONgfLo2X-45" vertex="1">
          <mxGeometry x="326" y="71" width="120" height="60" as="geometry" />
        </mxCell>
        <mxCell id="6dhvzc9-vLlkONgfLo2X-15" value="" style="edgeStyle=none;curved=1;rounded=0;orthogonalLoop=1;jettySize=auto;html=1;fontSize=12;startSize=8;endSize=8;" parent="6dhvzc9-vLlkONgfLo2X-45" source="6dhvzc9-vLlkONgfLo2X-14" target="6dhvzc9-vLlkONgfLo2X-16" edge="1">
          <mxGeometry relative="1" as="geometry" />
        </mxCell>
        <mxCell id="6dhvzc9-vLlkONgfLo2X-17" value="" style="edgeStyle=none;curved=1;rounded=0;orthogonalLoop=1;jettySize=auto;html=1;fontSize=12;startSize=8;endSize=8;" parent="6dhvzc9-vLlkONgfLo2X-45" source="6dhvzc9-vLlkONgfLo2X-16" target="6dhvzc9-vLlkONgfLo2X-18" edge="1">
          <mxGeometry relative="1" as="geometry" />
        </mxCell>
        <mxCell id="6dhvzc9-vLlkONgfLo2X-19" value="Worker Node 1" style="whiteSpace=wrap;html=1;fontSize=16;rounded=0;fillColor=#DF7025;" parent="6dhvzc9-vLlkONgfLo2X-45" vertex="1">
          <mxGeometry x="503" width="120" height="60" as="geometry" />
        </mxCell>
        <mxCell id="6dhvzc9-vLlkONgfLo2X-20" value="" style="edgeStyle=none;curved=1;rounded=0;orthogonalLoop=1;jettySize=auto;html=1;fontSize=12;startSize=8;endSize=8;" parent="6dhvzc9-vLlkONgfLo2X-45" source="6dhvzc9-vLlkONgfLo2X-18" target="6dhvzc9-vLlkONgfLo2X-19" edge="1">
          <mxGeometry relative="1" as="geometry" />
        </mxCell>
        <mxCell id="6dhvzc9-vLlkONgfLo2X-21" value="Worker Node 2" style="whiteSpace=wrap;html=1;fontSize=16;rounded=0;fillColor=#DF7025;" parent="6dhvzc9-vLlkONgfLo2X-45" vertex="1">
          <mxGeometry x="503" y="71" width="120" height="60" as="geometry" />
        </mxCell>
        <mxCell id="6dhvzc9-vLlkONgfLo2X-25" value="Worker Node 3" style="whiteSpace=wrap;html=1;fontSize=16;rounded=0;fillColor=#DF7025;" parent="6dhvzc9-vLlkONgfLo2X-45" vertex="1">
          <mxGeometry x="503" y="149" width="120" height="60" as="geometry" />
        </mxCell>
        <mxCell id="6dhvzc9-vLlkONgfLo2X-22" value="" style="edgeStyle=none;curved=1;rounded=0;orthogonalLoop=1;jettySize=auto;html=1;fontSize=12;startSize=8;endSize=8;" parent="6dhvzc9-vLlkONgfLo2X-45" source="6dhvzc9-vLlkONgfLo2X-18" target="6dhvzc9-vLlkONgfLo2X-21" edge="1">
          <mxGeometry relative="1" as="geometry" />
        </mxCell>
        <mxCell id="6dhvzc9-vLlkONgfLo2X-23" value="" style="edgeStyle=none;curved=1;rounded=0;orthogonalLoop=1;jettySize=auto;html=1;fontSize=12;startSize=8;endSize=8;" parent="6dhvzc9-vLlkONgfLo2X-45" source="6dhvzc9-vLlkONgfLo2X-18" target="6dhvzc9-vLlkONgfLo2X-21" edge="1">
          <mxGeometry relative="1" as="geometry" />
        </mxCell>
        <mxCell id="6dhvzc9-vLlkONgfLo2X-24" value="" style="edgeStyle=none;curved=1;rounded=0;orthogonalLoop=1;jettySize=auto;html=1;fontSize=12;startSize=8;endSize=8;" parent="6dhvzc9-vLlkONgfLo2X-45" source="6dhvzc9-vLlkONgfLo2X-18" target="6dhvzc9-vLlkONgfLo2X-21" edge="1">
          <mxGeometry relative="1" as="geometry" />
        </mxCell>
        <mxCell id="6dhvzc9-vLlkONgfLo2X-26" value="" style="edgeStyle=none;curved=1;rounded=0;orthogonalLoop=1;jettySize=auto;html=1;fontSize=12;startSize=8;endSize=8;" parent="6dhvzc9-vLlkONgfLo2X-45" source="6dhvzc9-vLlkONgfLo2X-18" target="6dhvzc9-vLlkONgfLo2X-25" edge="1">
          <mxGeometry relative="1" as="geometry" />
        </mxCell>
        <mxCell id="6dhvzc9-vLlkONgfLo2X-42" value="Pandas API (Pandas-on-Spark)" style="rounded=0;whiteSpace=wrap;html=1;fontSize=16;fillColor=#d5e8d4;strokeColor=#82b366;" parent="6dhvzc9-vLlkONgfLo2X-45" vertex="1">
          <mxGeometry y="-8" width="120" height="60" as="geometry" />
        </mxCell>
        <mxCell id="6dhvzc9-vLlkONgfLo2X-28" value="Storage" style="shape=cylinder3;whiteSpace=wrap;html=1;boundedLbl=1;backgroundOutline=1;size=15;fontSize=16;fillColor=#e1d5e7;strokeColor=#9673a6;" parent="6dhvzc9-vLlkONgfLo2X-13" vertex="1">
          <mxGeometry x="382" y="10" width="109" height="104" as="geometry" />
        </mxCell>
        <mxCell id="6dhvzc9-vLlkONgfLo2X-50" style="edgeStyle=orthogonalEdgeStyle;rounded=0;orthogonalLoop=1;jettySize=auto;html=1;fontSize=12;startSize=8;endSize=8;" parent="6dhvzc9-vLlkONgfLo2X-3" source="6dhvzc9-vLlkONgfLo2X-6" target="6dhvzc9-vLlkONgfLo2X-28" edge="1">
          <mxGeometry relative="1" as="geometry" />
        </mxCell>
        <mxCell id="6dhvzc9-vLlkONgfLo2X-55" style="edgeStyle=orthogonalEdgeStyle;rounded=0;orthogonalLoop=1;jettySize=auto;html=1;fontSize=12;startSize=8;endSize=8;" parent="6dhvzc9-vLlkONgfLo2X-3" source="6dhvzc9-vLlkONgfLo2X-28" target="6dhvzc9-vLlkONgfLo2X-53" edge="1">
          <mxGeometry relative="1" as="geometry" />
        </mxCell>
      </root>
    </mxGraphModel>
  </diagram>
</mxfile>
